<svg width="256" height="256" viewBox="0 0 256 256" fill="none" xmlns="http://www.w3.org/2000/svg">
<rect width="256" height="256" rx="32" fill="url(#paint0_linear_101_2)"/>
<path d="M86 102C86 98.6863 88.6863 96 92 96H164C167.314 96 170 98.6863 170 102V166H86V102Z" fill="#1E293B" stroke="#334155" stroke-width="4"/>
<path d="M72 170V176C72 181.523 76.4772 186 82 186H174C179.523 186 184 181.523 184 176V170H72Z" fill="#334155"/>
<rect x="100" y="112" width="56" height="8" rx="4" fill="#06B6D4"/>
<rect x="100" y="128" width="40" height="6" rx="3" fill="#475569"/>
<rect x="100" y="142" width="56" height="6" rx="3" fill="#475569"/>
<path d="M128 48L153.301 84H102.699L128 48Z" fill="#0E7490"/>
<defs>
<linearGradient id="paint0_linear_101_2" x1="0" y1="0" x2="256" y2="256" gradientUnits="userSpaceOnUse">
<stop stop-color="#0E7490" stop-opacity="0.2"/>
<stop offset="1" stop-color="#EC4899" stop-opacity="0.1"/>
</linearGradient>
</defs>
</svg>